<svg width="62" height="62" viewBox="0 0 62 62" fill="none" xmlns="http://www.w3.org/2000/svg">
<path d="M52.7969 2.90625H26.6406C25.3031 2.90625 24.2188 3.99056 24.2188 5.32812V56.6719C24.2188 58.0094 25.3031 59.0938 26.6406 59.0938H52.7969C54.1344 59.0938 55.2188 58.0094 55.2188 56.6719V5.32812C55.2188 3.99056 54.1344 2.90625 52.7969 2.90625Z" fill="#D6F4F6"/>
<path d="M24.2188 53.2812H55.2188V56.6719C55.2188 57.3142 54.9636 57.9302 54.5094 58.3844C54.0552 58.8386 53.4392 59.0938 52.7969 59.0938H26.6406C25.9983 59.0938 25.3823 58.8386 24.9281 58.3844C24.4739 57.9302 24.2188 57.3142 24.2188 56.6719V53.2812Z" fill="#31CAD0"/>
<path d="M42.6251 36.8125L39.5857 26.4581C41.0313 22.5972 41.0622 18.3489 39.6729 14.4674C38.2836 10.5858 35.5639 7.32203 31.9967 5.25535C28.4294 3.18867 24.2452 2.45276 20.1868 3.17825C16.1285 3.90373 12.4584 6.04368 9.82806 9.21827C7.19772 12.3929 5.77724 16.3967 5.81876 20.5192C5.86027 24.6417 7.36109 28.6162 10.0548 31.7372C12.7486 34.8581 16.461 36.9237 20.5332 37.5673C24.6053 38.2109 28.7738 37.3909 32.2987 35.2528L42.6251 36.8125Z" fill="#FDF1EF"/>
<path d="M23.25 13.5625C25.0485 13.5625 26.7733 14.277 28.0451 15.5487C29.3168 16.8204 30.0312 18.5453 30.0312 20.3438V27.125H16.4688V20.3438C16.4688 18.5453 17.1832 16.8204 18.4549 15.5487C19.7267 14.277 21.4515 13.5625 23.25 13.5625Z" fill="#E64B30"/>
<path d="M16.9531 27.125H29.5469C30.1892 27.125 30.8052 27.3802 31.2594 27.8344C31.7136 28.2885 31.9688 28.9046 31.9688 29.5469V31H14.5312V29.5469C14.5312 28.9046 14.7864 28.2885 15.2406 27.8344C15.6948 27.3802 16.3108 27.125 16.9531 27.125Z" fill="#B33A25"/>
<path d="M46.9844 41.6562H32.4531C31.1156 41.6562 30.0312 42.7406 30.0312 44.0781V46.9844C30.0312 48.3219 31.1156 49.4062 32.4531 49.4062H46.9844C48.3219 49.4062 49.4062 48.3219 49.4062 46.9844V44.0781C49.4062 42.7406 48.3219 41.6562 46.9844 41.6562Z" fill="#31CAD0"/>
<path d="M54.25 52.3125H25.1875V40.6875H23.25V56.6719C23.251 57.5708 23.6086 58.4326 24.2442 59.0683C24.8799 59.7039 25.7417 60.0615 26.6406 60.0625H52.7969C53.6958 60.0615 54.5576 59.7039 55.1933 59.0683C55.8289 58.4326 56.1865 57.5708 56.1875 56.6719V37.7812H54.25V52.3125ZM52.7969 58.125H26.6406C26.2554 58.1246 25.886 57.9714 25.6136 57.6989C25.3411 57.4265 25.1879 57.0571 25.1875 56.6719V54.25H54.25V56.6719C54.2496 57.0571 54.0964 57.4265 53.8239 57.6989C53.5515 57.9714 53.1821 58.1246 52.7969 58.125Z" fill="black"/>
<path d="M52.7969 1.9375H33.9062V3.875H52.7969C53.1821 3.87542 53.5515 4.02865 53.8239 4.30107C54.0964 4.57349 54.2496 4.94286 54.25 5.32812V35.8438H56.1875V5.32812C56.1865 4.42919 55.8289 3.56737 55.1933 2.93172C54.5576 2.29608 53.6958 1.93853 52.7969 1.9375Z" fill="black"/>
<path d="M32.496 36.2625L42.4804 37.7703C42.6414 37.7946 42.8059 37.778 42.9587 37.7219C43.1115 37.6658 43.2478 37.5721 43.3548 37.4494C43.4619 37.3268 43.5363 37.1791 43.5712 37.0201C43.6061 36.8611 43.6004 36.6959 43.5545 36.5397L40.6044 26.4906C41.3033 24.5167 41.659 22.4377 41.6562 20.3437C41.6562 10.1945 33.3992 1.93748 23.25 1.93748C19.6291 1.933 16.0876 2.99815 13.0699 4.99927C10.0522 7.00038 7.69282 9.84828 6.28792 13.1855L8.0726 13.9394C9.32973 10.9534 11.4409 8.40516 14.141 6.61462C16.8412 4.82408 20.0101 3.87099 23.25 3.87498C32.3308 3.87498 39.7188 11.2628 39.7188 20.3437C39.7216 22.3155 39.3691 24.2716 38.6781 26.1183C38.6046 26.3147 38.5968 26.5297 38.6559 26.7309L41.2675 35.6277L32.4431 34.2949C32.2185 34.261 31.9891 34.3071 31.795 34.4251C29.2193 35.9891 26.2633 36.815 23.25 36.8125C14.1692 36.8125 6.78125 29.4247 6.78125 20.3437C6.78011 18.796 6.99673 17.2559 7.42475 15.7686L5.56317 15.2314C5.0848 16.8933 4.84262 18.6143 4.84375 20.3437C4.84375 30.493 13.1008 38.75 23.25 38.75C26.4977 38.7523 29.6879 37.894 32.496 36.2625Z" fill="black"/>
<path d="M22.2812 5.8125H24.2188V10.6562H22.2812V5.8125Z" fill="black"/>
<path d="M13.8438 10.373L15.2136 9.00323L18.1194 11.909L16.7495 13.2788L13.8438 10.373Z" fill="black"/>
<path d="M28.374 11.912L31.2798 9.00625L32.6496 10.3761L29.7438 13.2819L28.374 11.912Z" fill="black"/>
<path d="M13.5625 31C13.5625 31.2569 13.6646 31.5033 13.8462 31.685C14.0279 31.8667 14.2743 31.9687 14.5313 31.9687H31.9688C32.2257 31.9687 32.4721 31.8667 32.6538 31.685C32.8354 31.5033 32.9375 31.2569 32.9375 31V29.5469C32.937 28.9053 32.7548 28.277 32.4119 27.7348C32.069 27.1926 31.5794 26.7586 31 26.4832V20.3437C31 18.2883 30.1835 16.3171 28.7301 14.8637C27.2767 13.4103 25.3054 12.5938 23.25 12.5938C21.1946 12.5938 19.2233 13.4103 17.7699 14.8637C16.3165 16.3171 15.5 18.2883 15.5 20.3437V26.4832C14.9206 26.7586 14.431 27.1926 14.0881 27.7348C13.7452 28.277 13.563 28.9053 13.5625 29.5469V31ZM17.4375 20.3437C17.4375 18.8022 18.0499 17.3237 19.1399 16.2337C20.23 15.1436 21.7084 14.5312 23.25 14.5312C24.7916 14.5312 26.27 15.1436 27.3601 16.2337C28.4501 17.3237 29.0625 18.8022 29.0625 20.3437V26.1562H17.4375V20.3437ZM15.5 29.5469C15.5004 29.1616 15.6536 28.7922 15.9261 28.5198C16.1985 28.2474 16.5679 28.0942 16.9531 28.0937H29.5469C29.9321 28.0942 30.3015 28.2474 30.5739 28.5198C30.8464 28.7922 30.9996 29.1616 31 29.5469V30.0312H15.5V29.5469Z" fill="black"/>
<path d="M24.2188 17.4375H26.1562V19.375H24.2188V17.4375Z" fill="black"/>
<path d="M32.4531 40.6875C31.5542 40.6885 30.6924 41.0461 30.0567 41.6817C29.4211 42.3174 29.0635 43.1792 29.0625 44.0781V46.9844C29.0635 47.8833 29.4211 48.7451 30.0567 49.3808C30.6924 50.0164 31.5542 50.374 32.4531 50.375H46.9844C47.8833 50.374 48.7451 50.0164 49.3808 49.3808C50.0164 48.7451 50.374 47.8833 50.375 46.9844V44.0781C50.374 43.1792 50.0164 42.3174 49.3808 41.6817C48.7451 41.0461 47.8833 40.6885 46.9844 40.6875H32.4531ZM48.4375 44.0781V46.9844C48.4371 47.3696 48.2839 47.739 48.0114 48.0114C47.739 48.2839 47.3696 48.4371 46.9844 48.4375H32.4531C32.0679 48.4371 31.6985 48.2839 31.4261 48.0114C31.1536 47.739 31.0004 47.3696 31 46.9844V44.0781C31.0004 43.6929 31.1536 43.3235 31.4261 43.0511C31.6985 42.7786 32.0679 42.6254 32.4531 42.625H46.9844C47.3696 42.6254 47.739 42.7786 48.0114 43.0511C48.2839 43.3235 48.4371 43.6929 48.4375 44.0781Z" fill="black"/>
<path d="M52.3125 9.6875V6.78125C52.3125 6.52432 52.2104 6.27792 52.0288 6.09624C51.8471 5.91456 51.6007 5.8125 51.3438 5.8125H48.4375V7.75H50.375V9.6875H52.3125Z" fill="black"/>
</svg>
