<svg width="1273" height="675" viewBox="0 0 1273 675" fill="none" xmlns="http://www.w3.org/2000/svg">
<g clip-path="url(#clip0)">
<path d="M1065.48 357.141L1075.05 354.931C1076 354.705 1076.99 355.156 1077.4 356.058L1087.19 376.398C1087.6 377.255 1087.24 378.247 1086.42 378.653C1086.33 378.698 1086.24 378.743 1086.15 378.743L1076.4 381.494C1075.32 381.81 1074.19 381.269 1073.74 380.231L1067.47 365.71L1067.29 365.8L1066.11 363.049L1066.29 362.959L1064.53 358.9C1064.26 358.268 1064.53 357.502 1065.21 357.231C1065.35 357.186 1065.39 357.141 1065.48 357.141Z" fill="#3F3D56"/>
<path d="M1073.92 355.698L1075.05 355.427C1075.73 355.292 1076.4 355.607 1076.68 356.194L1086.24 376.398C1086.47 376.849 1086.24 377.39 1085.84 377.571C1085.79 377.571 1085.75 377.616 1085.7 377.616L1076.04 380.547C1075.46 380.728 1074.87 380.457 1074.64 379.916L1065.57 358.855C1065.35 358.358 1065.57 357.727 1066.11 357.502C1066.16 357.456 1066.2 357.456 1066.29 357.456L1067.33 357.231C1067.56 357.186 1067.74 357.276 1067.87 357.456C1067.96 357.637 1068.15 357.727 1068.33 357.682L1073.38 356.509C1073.74 356.419 1073.97 356.058 1073.92 355.698Z" fill="#4549FF"/>
<path d="M1134.26 328.548C1133.68 326.203 1131.6 324.534 1129.16 324.579C1125.73 324.624 1121.54 325.481 1122.48 329.54C1124.02 336.26 1135.21 365.574 1135.21 365.574L1107.95 368.957C1107.95 368.957 1086.69 365.845 1093.42 373.106C1100.14 380.367 1108.99 376.218 1108.99 376.218C1108.99 376.218 1144.01 377.165 1144.01 371.302C1144.01 369.769 1143.74 367.649 1142.61 363.049L1134.26 328.548Z" fill="#FFB8B8"/>
<path d="M1113.64 319.708C1121.09 319.708 1127.13 313.671 1127.13 306.224C1127.13 298.776 1121.09 292.739 1113.64 292.739C1106.19 292.739 1100.14 298.776 1100.14 306.224C1100.14 313.671 1106.19 319.708 1113.64 319.708Z" fill="#FFB8B8"/>
<path d="M1122.76 313.755C1122.76 313.755 1121.72 324.128 1125.33 328.277H1105.6C1105.6 328.277 1110.25 324.128 1106.64 315.83C1103.03 307.532 1122.76 313.755 1122.76 313.755Z" fill="#FFB8B8"/>
<path d="M1135.71 353.127C1135.35 354.75 1134.99 356.149 1134.62 357.411C1133.27 362.147 1131.96 364.357 1131.24 365.349C1131.06 365.619 1130.83 365.89 1130.52 366.07L1098.88 357.276C1098.88 357.276 1099.92 346.407 1102.49 343.791C1105.06 341.176 1104.02 327.195 1104.02 327.195L1112.33 324.624C1112.33 324.624 1120.05 324.354 1125.33 324.399C1127 324.399 1128.4 324.444 1129.3 324.534C1129.52 324.534 1129.75 324.579 1129.98 324.624C1132.1 325.165 1138.33 341.717 1135.71 353.127Z" fill="#FFB8B8"/>
<path d="M1121.45 358.088C1121.45 358.088 1114.45 326.203 1111.83 325.165C1109.4 324.173 1104.57 326.699 1104.57 326.699C1104.57 326.699 1113.23 321.783 1117.61 358.088H1121.45Z" fill="#2F2E41"/>
<path d="M1134.62 357.411C1133.27 362.147 1131.96 364.357 1131.24 365.349C1129.43 355.021 1125.69 332.877 1125.37 324.399C1127.04 324.399 1128.44 324.444 1129.34 324.534C1129.66 330.938 1132.37 342.033 1134.62 357.411Z" fill="#2F2E41"/>
<path d="M1099.92 351.052C1099.92 351.052 1104.34 357.547 1107.95 357.005C1111.56 356.509 1131.92 358.719 1132.91 362.282L1127.13 382.441V389.702C1127.13 389.702 1134.49 395.385 1135.26 411.079C1135.53 417.438 1134.67 423.752 1132.68 429.796L1130.25 437.372C1130.25 437.372 1127.67 450.857 1130.74 456.539C1133.81 462.222 1132.28 474.669 1132.28 474.669C1132.28 474.669 1160.03 513.274 1144.46 516.927C1128.89 520.535 1113.05 527.03 1112.56 517.198C1112.06 507.366 1108.94 440.484 1108.94 440.484C1108.94 440.484 1112.06 515.665 1100.14 517.198C1088.23 518.731 1065.39 529.645 1064.35 516.702C1063.32 503.758 1090.8 396.918 1090.8 396.918C1090.8 396.918 1090.3 380.863 1099.11 374.639L1101.18 366.341C1101.23 366.341 1095.22 354.164 1099.92 351.052Z" fill="#2F2E41"/>
<path d="M1101.99 338.605L1099.15 353.398V355.111L1103.57 341.221L1101.99 338.605Z" fill="#2F2E41"/>
<path d="M1123.93 509.17C1123.93 509.17 1125.15 522.88 1121.18 524.188C1117.2 525.451 1099.38 524.053 1103.75 532.261C1108.18 540.514 1142.88 536.365 1141.35 531.945C1139.86 527.48 1133 506.645 1133 506.645L1123.93 509.17Z" fill="#2F2E41"/>
<path d="M1079.29 510.207C1079.29 510.207 1080.51 523.918 1076.54 525.225C1072.57 526.488 1054.74 525.09 1059.12 533.298C1063.54 541.551 1098.25 537.402 1096.71 532.983C1095.22 528.518 1088.36 507.682 1088.36 507.682L1079.29 510.207Z" fill="#2F2E41"/>
<path d="M1110.93 330.126C1110.34 327.781 1108.27 326.112 1105.83 326.158C1102.4 326.203 1098.2 327.06 1099.15 331.118C1100.69 337.838 1107.95 369.498 1107.95 369.498L1084.62 370.535C1084.62 370.535 1063.36 367.423 1070.09 374.684C1076.81 381.945 1085.66 377.796 1085.66 377.796C1085.66 377.796 1111.34 381.675 1115.49 377.526C1115.53 377.481 1115.58 377.435 1115.62 377.39C1119.01 374.053 1120.41 369.227 1119.28 364.582L1110.93 330.126Z" fill="#FFB8B8"/>
<path d="M1118.6 284.802C1109.98 284.802 1102.99 294.498 1102.99 306.404V321.557H1106.73L1108.9 315.92L1108.36 321.557H1132.37L1134.35 316.461L1133.86 321.557H1136.57V309.651C1136.57 295.896 1128.49 284.802 1118.6 284.802Z" fill="#2F2E41"/>
<path d="M1120.23 288.139C1118.33 285.568 1115.35 284.08 1112.15 284.035H1111.79C1104.43 284.035 1098.43 290.71 1098.43 298.918H1100.91L1101.32 295.896L1101.9 298.918H1116.57L1117.79 296.347L1117.47 298.918H1120.36C1121.72 305.592 1119.78 312.267 1114.54 318.942H1119.46L1121.9 313.8L1121.27 318.942H1130.65L1132.5 307.126C1132.5 298.286 1127.36 290.8 1120.23 288.139Z" fill="#2F2E41"/>
<path d="M1024.68 325.256V249.444H840.498V351.052H1003.61H1024.68H1055.82L1024.68 325.256Z" fill="#F2F2F2"/>
<path d="M1198.58 537.493C1198.44 537.312 1195.64 532.622 1194.7 522.88C1193.79 513.951 1194.38 498.933 1202.19 477.916C1216.99 438.184 1198.76 406.073 1198.58 405.758L1199.48 405.217C1199.52 405.307 1204.22 413.47 1207.02 426.503C1210.67 443.776 1209.36 461.726 1203.18 478.232C1188.42 517.919 1199.39 536.681 1199.52 536.906L1198.58 537.493Z" fill="#3F3D56"/>
<path d="M1192.8 403.413C1196.51 403.413 1199.53 400.404 1199.53 396.693C1199.53 392.982 1196.51 389.973 1192.8 389.973C1189.09 389.973 1186.08 392.982 1186.08 396.693C1186.08 400.404 1189.09 403.413 1192.8 403.413Z" fill="#4549FF"/>
<path d="M1214.06 428.307C1217.77 428.307 1220.78 425.299 1220.78 421.588C1220.78 417.876 1217.77 414.868 1214.06 414.868C1210.34 414.868 1207.33 417.876 1207.33 421.588C1207.33 425.299 1210.34 428.307 1214.06 428.307Z" fill="#4549FF"/>
<path d="M1199.53 444.904C1203.24 444.904 1206.25 441.895 1206.25 438.184C1206.25 434.473 1203.24 431.464 1199.53 431.464C1195.81 431.464 1192.8 434.473 1192.8 438.184C1192.8 441.895 1195.81 444.904 1199.53 444.904Z" fill="#4549FF"/>
<path d="M1217.17 458.885C1220.89 458.885 1223.9 455.876 1223.9 452.165C1223.9 448.453 1220.89 445.445 1217.17 445.445C1213.46 445.445 1210.45 448.453 1210.45 452.165C1210.45 455.876 1213.46 458.885 1217.17 458.885Z" fill="#4549FF"/>
<path d="M1194.34 480.668C1198.05 480.668 1201.06 477.659 1201.06 473.948C1201.06 470.237 1198.05 467.228 1194.34 467.228C1190.62 467.228 1187.61 470.237 1187.61 473.948C1187.61 477.659 1190.62 480.668 1194.34 480.668Z" fill="#4549FF"/>
<path d="M1202.64 537.718C1202.64 537.718 1195.91 521.121 1216.13 508.674L1202.64 537.718Z" fill="#3F3D56"/>
<path d="M1194.34 537.402C1194.34 537.402 1191.27 519.768 1167.53 519.904L1194.34 537.402Z" fill="#3F3D56"/>
<path d="M1277.38 536.681H977.475V537.718H1277.38V536.681Z" fill="#3F3D56"/>
<path d="M1000.31 278.488H862.793V283.133H1000.31V278.488Z" fill="#4549FF"/>
<path d="M1000.31 290.394H862.793V295.039H1000.31V290.394Z" fill="#3F3D56"/>
<path d="M1000.31 302.345H862.793V306.99H1000.31V302.345Z" fill="#3F3D56"/>
<path d="M1008.07 347.94C1010.37 347.94 1012.23 346.083 1012.23 343.791C1012.23 341.5 1010.37 339.642 1008.07 339.642C1005.78 339.642 1003.92 341.5 1003.92 343.791C1003.92 346.083 1005.78 347.94 1008.07 347.94Z" fill="#4549FF"/>
<path d="M1019.99 347.94C1022.28 347.94 1024.14 346.083 1024.14 343.791C1024.14 341.5 1022.28 339.642 1019.99 339.642C1017.7 339.642 1015.84 341.5 1015.84 343.791C1015.84 346.083 1017.7 347.94 1019.99 347.94Z" fill="#4549FF"/>
<path d="M1031.95 347.94C1034.24 347.94 1036.1 346.083 1036.1 343.791C1036.1 341.5 1034.24 339.642 1031.95 339.642C1029.66 339.642 1027.8 341.5 1027.8 343.791C1027.8 346.083 1029.66 347.94 1031.95 347.94Z" fill="#4549FF"/>
<path d="M946.965 398.677H0V412.658H946.965V398.677Z" fill="#FFE3E2"/>
<path d="M64.178 393.265C66.5249 394.934 68.9169 396.557 71.2637 398.226C71.2637 403.187 71.2637 408.148 71.2637 413.109C68.9169 415.003 66.5249 416.897 64.178 418.791V393.265Z" fill="#FF564F"/>
<path d="M181.296 418.07C178.949 416.401 176.557 414.778 174.21 413.109C174.21 408.148 174.21 403.187 174.21 398.226C176.557 396.332 178.949 394.438 181.296 392.544V418.07Z" fill="#FF564F"/>
<path d="M300.896 393.085C303.243 394.754 305.635 396.377 307.982 398.046C307.982 403.007 307.982 407.968 307.982 412.928C305.635 414.823 303.243 416.717 300.896 418.611V393.085Z" fill="#FF564F"/>
<path d="M174.165 401.879H71.2639V403.548H174.165V401.879Z" fill="white"/>
<path d="M300.942 401.879H181.296V403.548H300.942V401.879Z" fill="white"/>
<path d="M411.877 380.728H292.231V382.396H411.877V380.728Z" fill="white"/>
<path d="M64.1782 401.879H1.4895V403.548H64.1782V401.879Z" fill="white"/>
<path d="M416.345 393.085C418.692 394.754 421.084 396.377 423.43 398.046C423.43 403.007 423.43 407.968 423.43 412.928C421.084 414.823 418.692 416.717 416.345 418.611V393.085Z" fill="#FF564F"/>
<path d="M539.015 418.16C536.668 416.491 534.276 414.868 531.929 413.199C531.929 408.238 531.929 403.277 531.929 398.316C534.276 396.422 536.668 394.528 539.015 392.634V418.16Z" fill="#FF564F"/>
<path d="M661.684 393.355C664.03 395.024 666.422 396.648 668.769 398.316C668.769 403.277 668.769 408.238 668.769 413.199C666.422 415.093 664.03 416.987 661.684 418.882V393.355Z" fill="#FF564F"/>
<path d="M784.985 393.085C787.332 394.754 789.724 396.377 792.071 398.046C792.071 403.007 792.071 407.968 792.071 412.928C789.724 414.823 787.332 416.717 784.985 418.611V393.085Z" fill="#FF564F"/>
<path d="M899.621 418.25C897.274 416.582 894.882 414.958 892.535 413.289C892.535 408.328 892.535 403.367 892.535 398.407C894.882 396.512 897.274 394.618 899.621 392.724V418.25Z" fill="#FF564F"/>
<path d="M936.539 398.677H933.515V412.658H936.539V398.677Z" fill="white"/>
<path d="M944.618 398.677H939.789V412.658H944.618V398.677Z" fill="white"/>
<path d="M930.943 398.677H929.453V412.658H930.943V398.677Z" fill="white"/>
<path d="M416.345 401.879H308.027V403.548H416.345V401.879Z" fill="white"/>
<path d="M531.883 401.879H423.476V403.548H531.883V401.879Z" fill="white"/>
<path d="M661.729 401.879H539.015V403.548H661.729V401.879Z" fill="white"/>
<path d="M785.03 401.879H668.814V403.548H785.03V401.879Z" fill="white"/>
<path d="M892.535 401.879H792.116V403.548H892.535V401.879Z" fill="white"/>
<path d="M5.95732 398.677H1.12817V412.658H5.95732V398.677Z" fill="white"/>
<path d="M578.731 399.173H574.533V411.801H578.731V399.173Z" fill="white"/>
<path d="M535.945 489.732C551.11 489.011 573.631 488.83 600.62 492.303C625.262 495.505 640.697 500.06 652.793 502.946C696.616 513.41 719.408 507.366 790.807 506.509C816.623 506.194 854.985 506.509 902.374 509.847C918.125 510.749 929.544 512.688 932.703 514.086C933.876 514.582 936.178 516.025 937.758 518.1C938.074 518.506 938.389 519.002 938.57 519.678C938.976 521.663 937.442 523.422 937.035 523.873C929.724 529.781 923.18 534.155 918.125 537.267C908.331 543.31 903.231 545.701 902.374 549.85C901.155 555.622 910.092 560.448 910.092 560.448C910.092 560.448 937.532 570.911 943.444 578.939C949.357 586.966 948.319 589.537 940.872 594.092C933.425 598.647 909.189 597.429 909.189 597.429C909.189 597.429 894.34 595.58 889.917 597.565C885.54 599.549 882.471 600.722 887.571 604.42C892.67 608.118 887.39 611.545 884.908 612.357C873.58 616.146 851.104 618.852 851.104 618.852C832.329 618.852 820.143 622.865 809.672 618.22C804.302 615.83 803.264 613.214 802.993 612.132C801.819 607.757 806.017 603.067 805.249 602.481C804.482 601.894 800.646 605.953 800.646 605.953C791.755 615.83 705.643 612.763 663.85 615.198C661.594 615.334 618.447 617.859 583.56 612.583C577.016 611.591 560.768 609.606 560.091 600.631C559.414 591.567 560.317 586.696 567.177 581.825C574.037 576.954 610.549 560.674 632.258 557.517C653.966 554.36 664.798 551.924 676.081 548.407C687.364 544.889 692.013 544.889 692.69 540.424C693.367 536.004 677.435 536.23 677.435 536.23L530.891 531.134L470.233 528.022C470.233 528.022 439.227 526.488 437.918 520.039C436.609 513.635 448.479 508.449 448.479 508.449C457.912 504.57 468.698 500.827 480.749 497.67C501.645 492.393 520.465 490.319 535.945 489.732Z" fill="#80C3FF"/>
<path d="M618.041 512.327C611.768 511.29 606.577 511.29 602.831 511.515C599.04 511.741 594.798 512.327 594.798 512.553C594.798 512.778 598.454 512.823 601.432 512.643C603.644 512.508 606.848 512.237 609.15 512.192C610.098 512.192 611.045 512.192 611.045 512.192C611.587 512.192 612.264 512.192 613.167 512.192C615.062 512.237 616.732 512.282 618.041 512.327Z" fill="white"/>
<path d="M624.63 507.727C630.904 506.69 636.094 506.69 639.84 506.915C643.631 507.141 647.873 507.727 647.873 507.953C647.873 508.178 644.218 508.223 641.239 508.043C639.028 507.907 635.823 507.637 633.521 507.592C632.574 507.592 631.626 507.592 631.626 507.592C631.084 507.592 630.407 507.592 629.505 507.592C627.564 507.637 625.939 507.682 624.63 507.727Z" fill="white"/>
<path d="M576.835 407.381C576.835 407.381 585.094 409.952 587.261 412.568C592.225 418.566 598.047 426.052 599.717 436.019C601.387 445.986 603.057 458.839 603.057 468.806C603.057 478.773 603.057 516.927 603.057 516.927H640.065V482.742C640.02 479.36 639.479 447.971 632.528 429.841C629.188 421.091 624.811 416.672 623.773 415.589C622.96 414.778 619.034 411.034 612.805 408.238C606.983 405.667 601.748 405.081 596.061 404.45C592.586 404.044 593.489 404.405 588.705 403.954C588.073 403.909 583.876 403.503 579.588 404.134C578.685 404.269 577.331 404.54 576.835 405.532C576.519 406.209 576.654 406.93 576.835 407.381Z" fill="#AEE0FF"/>
<path d="M622.644 499.338C622.825 502.45 622.825 506.96 622.599 507.005C622.103 507.005 622.328 493.205 622.644 499.338Z" fill="white"/>
<path d="M612.896 452.255C613.076 452.255 613.844 458.298 614.114 464.342C614.25 467.859 614.295 472.685 614.114 472.685C613.753 472.685 612.535 452.255 612.896 452.255Z" fill="white"/>
<path d="M631.716 465.695C631.896 468.806 631.896 473.316 631.67 473.361C631.174 473.406 631.4 459.561 631.716 465.695Z" fill="white"/>
<path d="M619.666 475.707C619.937 480.352 619.937 487.026 619.575 487.072C618.853 487.072 619.169 466.596 619.666 475.707Z" fill="white"/>
<path d="M610.413 490.905C610.594 494.017 610.594 498.527 610.368 498.572C609.872 498.617 610.098 484.771 610.413 490.905Z" fill="white"/>
<path d="M628.421 484.005C628.602 487.117 628.602 491.627 628.376 491.672C627.834 491.672 628.06 477.871 628.421 484.005Z" fill="white"/>
<path d="M633.386 503.397C633.566 506.509 633.566 511.019 633.341 511.064C632.844 511.064 633.07 497.264 633.386 503.397Z" fill="white"/>
<path d="M588.84 407.426C588.93 407.246 593.85 408.148 597.415 412.026C599.491 414.281 600.439 416.807 600.304 416.897C600.123 416.987 598.679 414.101 595.475 411.35C591.999 408.373 588.75 407.562 588.84 407.426Z" fill="white"/>
<path d="M614.791 414.281C616.055 414.732 618.176 415.77 619.981 417.844C621.877 420.009 622.644 422.49 622.554 422.535C622.464 422.58 621.741 420.866 620.252 419.017C618.402 416.581 616.28 415.138 614.791 414.281Z" fill="white"/>
<path d="M610.549 421.272C611.813 422.625 613.437 424.744 614.701 427.676C616.1 430.833 616.506 433.809 616.416 433.809C616.326 433.809 615.829 431.6 614.701 428.803C613.392 425.556 611.813 423.031 610.549 421.272Z" fill="white"/>
<path d="M626.029 449.143C626.571 453.247 626.797 457.802 626.661 457.802C626.39 457.847 624.359 441.476 624.675 441.431C624.766 441.431 625.578 445.625 626.029 449.143Z" fill="white"/>
<path d="M607.254 432.141C608.112 433.268 609.33 435.072 610.007 437.508C611 440.845 610.639 443.821 610.549 443.867C610.459 443.867 610.549 441.521 609.782 438.455C609.105 435.704 608.067 433.539 607.254 432.141Z" fill="white"/>
<path d="M446.629 511.786C446.629 511.786 438.911 518.731 450.284 523.737C449.201 523.196 447.261 521.978 445.997 519.678C445.681 519.092 445.455 518.506 445.275 517.965C445.139 517.288 445.049 516.206 445.275 514.943C445.591 513.5 446.222 512.417 446.629 511.786Z" fill="white"/>
<path d="M568.576 587.913C568.576 587.913 556.029 599.188 574.533 607.396C572.773 606.494 569.569 604.555 567.538 600.812C566.996 599.865 566.635 598.918 566.364 598.061C566.184 596.978 566.003 595.219 566.364 593.145C566.861 590.664 567.899 588.861 568.576 587.913Z" fill="white"/>
<path d="M808.228 607.171C807.777 608.479 807.325 610.418 808.093 612.267C809.898 616.732 817.119 617.544 817.119 617.634C817.119 617.679 812.741 617.048 809.943 613.53C809.537 613.034 809.266 612.538 809.04 612.177C808.77 611.726 808.363 610.959 808.183 609.967C807.957 608.704 808.093 607.712 808.228 607.171Z" fill="white"/>
<path d="M882.741 597.655C882.109 597.925 880.665 598.647 880.304 600C879.672 602.571 883.689 605.141 883.734 605.096C883.779 605.051 881.839 602.706 881.613 601.218C881.568 600.767 881.568 600.271 881.568 600.271C881.568 599.955 881.613 599.504 881.839 598.963C882.155 598.286 882.516 597.88 882.741 597.655Z" fill="white"/>
<path d="M899.982 549.038C899.305 550.256 898.538 552.105 898.944 554.044C899.937 558.779 906.933 560.809 906.888 560.899C906.888 560.944 902.69 559.591 900.524 555.577C900.208 555.036 900.027 554.495 899.847 554.089C899.666 553.593 899.396 552.781 899.396 551.744C899.441 550.526 899.757 549.579 899.982 549.038Z" fill="white"/>
<path d="M930.672 524.865C931.213 523.557 931.71 521.663 931.078 519.769C929.543 515.213 922.322 513.996 922.367 513.951C922.367 513.906 926.7 514.762 929.318 518.461C929.679 519.002 929.95 519.453 930.175 519.859C930.446 520.355 930.762 521.121 930.897 522.114C931.033 523.286 930.852 524.278 930.672 524.865Z" fill="white"/>
<path d="M571.104 493.701C566.545 492.754 559.459 491.627 550.794 491.807C543.663 491.942 536.442 492.934 536.487 493.25C536.487 493.566 543.076 493.791 547.409 493.205C547.815 493.16 549.079 492.889 550.839 492.889C552.148 492.889 553.502 492.889 554.856 492.889C560.497 492.98 565.913 493.25 571.104 493.701Z" fill="white"/>
<path d="M833.006 511.606C828.447 510.658 821.362 509.531 812.696 509.711C805.565 509.847 798.344 510.839 798.389 511.155C798.389 511.47 804.979 511.696 809.311 511.109C809.718 511.064 810.981 510.794 812.741 510.794C814.05 510.794 815.404 510.794 816.758 510.794C822.4 510.839 827.816 511.155 833.006 511.606Z" fill="white"/>
<path d="M693.457 545.43C694.675 544.393 696.932 542.138 696.526 539.702C695.894 535.598 688.086 534.2 688.086 534.11C688.086 534.065 693.096 536.094 694.224 538.485C694.585 539.206 694.766 540.018 694.766 540.018C694.901 540.604 695.127 541.461 695.036 542.363C694.946 543.897 693.998 544.979 693.457 545.43Z" fill="white"/>
<path d="M724.733 609.291C720.175 608.343 713.089 607.216 704.424 607.396C697.293 607.532 690.072 608.524 690.117 608.84C690.117 609.155 696.706 609.381 701.039 608.794C701.445 608.749 702.709 608.479 704.469 608.479C705.778 608.479 707.132 608.479 708.486 608.479C714.127 608.569 719.543 608.84 724.733 609.291Z" fill="white"/>
<path d="M630.813 517.874C626.255 516.702 619.169 515.349 610.504 515.574C603.283 515.755 596.152 517.018 596.197 517.423C596.242 517.784 602.696 518.1 607.119 517.378C607.57 517.288 608.834 517.108 610.549 517.063C612.715 517.017 614.295 517.333 614.701 517.423C616.642 517.739 620.884 518.01 630.813 517.874Z" fill="white"/>
<path d="M648.099 517.288C645.933 516.792 642.909 516.251 639.208 516.07C631.626 515.71 624.856 517.108 624.901 517.513C624.901 517.829 631.49 518.055 635.823 517.468C636.229 517.423 637.493 517.153 639.253 517.153C640.382 517.153 641.149 517.108 643.27 517.153C645.166 517.198 646.79 517.243 648.099 517.288Z" fill="white"/>
<path d="M938.886 578.398C939.247 578.623 944.121 582.186 943.535 586.47C942.767 591.657 934.418 593.551 934.328 593.37C934.282 593.28 937.713 591.972 939.698 588.319C940.105 587.598 940.375 586.876 940.601 586.2C940.736 585.343 940.872 584.035 940.601 582.456C940.195 580.562 939.382 579.164 938.886 578.398Z" fill="white"/>
</g>
<defs>
<clipPath id="clip0">
<rect width="1273" height="675" fill="white"/>
</clipPath>
</defs>
</svg>
