<svg width="45" height="45" viewBox="0 0 45 45" fill="none" xmlns="http://www.w3.org/2000/svg">
<path d="M45 15.4395C45 13.4162 43.7857 10.3685 41.2877 6.12185C39.5133 3.10553 37.7673 0.654961 37.6938 0.552041C37.4464 0.205576 37.0469 0 36.6211 0C36.1954 0 35.7957 0.205664 35.5483 0.552129C35.3736 0.796728 31.9027 5.67738 29.8176 10.1199C26.6071 4.81043 23.6055 0.597832 23.5729 0.552129C23.3253 0.205576 22.9257 0 22.5 0C22.0743 0 21.6747 0.205576 21.4272 0.552041C21.3916 0.601963 17.8223 5.6112 14.3031 11.5937C13.9261 12.2347 13.5653 12.8611 13.2174 13.4759C11.4013 10.3504 9.54624 7.74501 9.45167 7.61265C9.20417 7.26618 8.80462 7.06061 8.37888 7.06061C7.95314 7.06061 7.55358 7.26618 7.30608 7.61265C7.23261 7.71548 5.48657 10.166 3.71224 13.1825C1.2143 17.429 0 20.4768 0 22.5C0 26.6885 3.08927 30.169 7.10886 30.7828C7.73402 38.7269 14.3981 45 22.5 45C31.0133 45 37.9395 38.0739 37.9395 29.5605C37.9395 28.0259 37.5313 26.1073 36.7207 23.817C41.295 23.7635 45 20.0263 45 15.4395ZM2.63672 22.5C2.63672 21.6467 3.07046 19.4771 5.97542 14.5355C6.84571 13.0551 7.72321 11.6957 8.37888 10.7124C9.27273 12.0533 10.5802 14.0955 11.726 16.2006C9.09325 21.191 7.56483 25.1856 7.16599 28.1133C4.58033 27.555 2.63672 25.2502 2.63672 22.5ZM22.5 42.3633C15.4405 42.3633 9.69724 36.62 9.69724 29.5605C9.69724 27.3103 10.8889 22.6013 16.5662 12.947C18.8676 9.03331 21.1912 5.54273 22.5 3.629C23.8065 5.53922 26.1243 9.02109 28.4242 12.9307C34.1094 22.5954 35.3027 27.3087 35.3027 29.5606C35.3028 36.62 29.5595 42.3633 22.5 42.3633ZM36.6211 21.1816C36.2926 21.1816 35.9664 21.154 35.6462 21.0992C34.6053 18.6981 33.2063 15.9594 31.4784 12.9406C32.65 9.82169 35.1762 5.82108 36.6216 3.65221C37.2742 4.63096 38.1469 5.98298 39.015 7.45875C41.9283 12.4113 42.3633 14.5847 42.3633 15.4395C42.3633 18.6057 39.7873 21.1816 36.6211 21.1816Z" fill="black"/>
</svg>
