<svg width="55" height="55" viewBox="0 0 55 55" fill="none" xmlns="http://www.w3.org/2000/svg">
<path d="M9.92086 40.0671L10.1997 40.346C10.6194 40.7654 10.6194 41.4456 10.1999 41.8652C9.78035 42.2846 9.10037 42.2846 8.68068 41.8652L8.40181 41.5864L8.12294 41.8652C7.70335 42.2846 7.02337 42.2846 6.60367 41.8652C6.18419 41.4457 6.18419 40.7655 6.60367 40.346L6.88254 40.0671L6.60367 39.7882C6.18419 39.3687 6.18419 38.6885 6.60367 38.2689C6.81347 38.0593 7.08836 37.9543 7.36325 37.9543C7.63825 37.9543 7.91304 38.0593 8.12283 38.2689L8.4017 38.5478L8.68057 38.2689C8.89036 38.0593 9.16526 37.9543 9.44015 37.9543C9.71515 37.9543 9.98993 38.0593 10.1997 38.2689C10.6192 38.6884 10.6192 39.3686 10.1997 39.7882L9.92086 40.0671Z" fill="black"/>
<path d="M14.5445 6.58725C14.5306 6.65481 14.5102 6.72249 14.4821 6.78802C14.4553 6.85247 14.423 6.91477 14.3833 6.97278C14.3447 7.03186 14.2996 7.08676 14.2502 7.13617C14.001 7.38635 13.6303 7.50033 13.2811 7.4304C13.2124 7.41643 13.1447 7.39613 13.0803 7.36928C13.0148 7.34242 12.9525 7.30901 12.8945 7.27045C12.8354 7.2307 12.7806 7.18558 12.7311 7.13617C12.6817 7.08676 12.6366 7.03186 12.598 6.97278C12.5594 6.91477 12.526 6.85247 12.4991 6.78802C12.4723 6.72249 12.452 6.65481 12.438 6.58714C12.424 6.51731 12.4165 6.44631 12.4165 6.37659C12.4165 6.09407 12.5314 5.81692 12.7312 5.61712C12.7807 5.5677 12.8356 5.52259 12.8946 5.48391C12.9526 5.44535 13.015 5.41194 13.0804 5.38509C13.1449 5.35823 13.2125 5.33782 13.2812 5.32396C13.3501 5.31 13.4209 5.30248 13.4907 5.30248C13.7743 5.30248 14.0504 5.41742 14.2502 5.61722C14.4499 5.81703 14.5649 6.09418 14.5649 6.3767C14.5649 6.44641 14.5586 6.51731 14.5445 6.58725Z" fill="black"/>
<path d="M52.8516 19.928H40.0467C39.4853 19.928 39.025 19.4971 38.9772 18.948H37.5124C36.2952 20.4112 33.8468 23.5023 33.141 25.0676L30.8134 30.2272C30.0718 32.1692 27.777 33.2226 25.6755 32.5772C23.991 32.0587 22.8592 30.5962 22.8592 28.9378C22.8592 28.5135 22.9349 28.0926 23.0845 27.6859L24.6845 23.3503H22.6856V40.7709C22.6856 43.0044 20.8684 44.8216 18.6348 44.8216H12.491V47.3405H21.6111C22.2043 47.3405 22.6854 47.8214 22.6854 48.4147V53.9258C22.6854 54.5191 22.2043 55 21.6111 55H11.7019C7.91355 55 4.83151 51.918 4.83151 48.1296V44.7312C2.69188 44.3052 1.07422 42.4135 1.07422 40.1506V39.7996C1.07422 37.5366 2.69188 35.6449 4.83151 35.2188V29.7232C4.83151 29.13 5.31255 28.649 5.90573 28.649H11.4169C12.0101 28.649 12.4911 29.13 12.4911 29.7232V35.1285H13.9786V23.3501H11.3255C9.23742 23.3501 7.53865 21.7581 7.53865 19.8013V3.54879C7.53865 1.592 9.23742 0 11.3255 0H29.9683C31.5268 0 33.0724 0.473839 34.3206 1.33439C34.3753 1.3721 34.4262 1.41475 34.4731 1.4618L37.4592 4.468H38.9773C39.0251 3.91896 39.4854 3.4881 40.0468 3.4881H52.8516C53.4447 3.4881 53.9258 3.96902 53.9258 4.56232V18.8537C53.9258 19.447 53.4447 19.928 52.8516 19.928ZM6.97995 48.1296C6.97995 50.7333 9.0982 52.8516 11.702 52.8516H20.537V49.4889H11.4169C10.8237 49.4889 10.3427 49.0079 10.3427 48.4147V44.8216H6.97995V48.1296ZM10.3426 30.7973H6.97995V35.1283H10.3426V30.7973ZM5.90573 37.277C5.90498 37.277 5.90434 37.2769 5.90369 37.2769H5.74524C4.35424 37.2769 3.22266 38.4085 3.22266 39.7995V40.1505C3.22266 41.5414 4.35424 42.673 5.74514 42.673H18.6346C19.6836 42.673 20.5369 41.8198 20.5369 40.7708V23.35H16.1268V36.2027C16.1269 36.7959 15.6459 37.2769 15.0527 37.2769L5.90573 37.277ZM25.2864 8.8984C25.1925 8.1053 24.4122 7.48451 23.4664 7.48451C23.4552 7.48451 23.444 7.4843 23.4328 7.48397C23.4328 7.48397 23.1793 7.47602 22.9201 7.46797C22.684 7.46066 22.443 7.45325 22.3836 7.45153C22.3803 7.45143 22.3781 7.45132 22.3755 7.45121C22.3682 7.45089 22.3618 7.45068 22.3526 7.45014L22.3208 7.44992C22.2755 7.44992 22.2313 7.44627 22.1876 7.44079C22.1418 7.4467 22.0955 7.45089 22.0482 7.45089H17.6451C17.0519 7.45089 16.5709 6.96985 16.5709 6.37667C16.5709 5.78349 17.0519 5.30245 17.6451 5.30245H22.0482C22.0935 5.30245 22.1377 5.30611 22.1814 5.31158C22.2272 5.30568 22.2735 5.30148 22.3208 5.30148H22.3355C22.3516 5.30019 22.3679 5.29945 22.384 5.29902C22.8658 5.28548 23.316 5.10974 23.6499 4.80573C23.9815 4.5027 24.1592 4.10738 24.1504 3.69306C24.1493 3.64182 24.1452 3.59111 24.1382 3.54116C24.034 2.79147 23.2878 2.19334 22.3728 2.15059C22.336 2.1493 22.2992 2.14844 22.2617 2.14844H11.3255C10.4221 2.14844 9.68709 2.77664 9.68709 3.54879V19.8013C9.68709 20.5735 10.4221 21.2016 11.3255 21.2016H22.2582C22.2904 21.2019 22.3216 21.2023 22.3634 21.1998C23.3399 21.1536 24.1244 20.4815 24.1495 19.6695C24.1642 19.1861 23.9337 18.8369 23.7378 18.6292C23.4031 18.2744 22.9121 18.0625 22.3898 18.0464H13.1589C12.5657 18.0464 12.0846 17.5654 12.0846 16.9722C12.0846 16.379 12.5657 15.898 13.1589 15.898H22.414H24.5405C25.5493 15.898 26.3699 15.1916 26.3699 14.3233C26.3699 13.455 25.5492 12.7487 24.5405 12.7487H24.1678H23.9266H13.1589C12.5657 12.7487 12.0846 12.2677 12.0846 11.6745C12.0846 11.0813 12.5657 10.6003 13.1589 10.6003H23.8318C24.402 10.4998 24.8741 10.1668 25.1174 9.72995C25.1631 9.64777 25.2008 9.56194 25.2296 9.47332C25.2584 9.3847 25.2782 9.29339 25.2883 9.20025C25.2933 9.15363 25.2958 9.10658 25.2958 9.05921C25.2958 9.00496 25.2926 8.95136 25.2864 8.8984ZM38.9724 6.61633H37.012V6.61654C36.7258 6.61654 36.4515 6.50235 36.2498 6.29932L33.0225 3.05014C32.1431 2.46813 31.0625 2.14844 29.9682 2.14844H25.9182C25.9262 2.16412 25.9331 2.18013 25.9409 2.19592C25.9577 2.23029 25.9745 2.26467 25.9903 2.29947C26.0006 2.32235 26.0104 2.34545 26.0203 2.36865C26.0347 2.40228 26.0487 2.436 26.0619 2.47006C26.0714 2.49423 26.0804 2.51872 26.0893 2.54321C26.1016 2.57684 26.1134 2.61067 26.1247 2.64462C26.1329 2.66986 26.1411 2.69511 26.1488 2.72046C26.1593 2.75451 26.1689 2.78878 26.1783 2.82315C26.1853 2.84894 26.1922 2.87461 26.1986 2.90061C26.2072 2.93563 26.215 2.97086 26.2225 3.0062C26.228 3.03187 26.2337 3.05744 26.2385 3.08333C26.2455 3.12029 26.2514 3.15756 26.2572 3.19483C26.2611 3.21943 26.2654 3.24403 26.2686 3.26885C26.2741 3.3102 26.2782 3.35199 26.2822 3.39378C26.2842 3.41483 26.2869 3.43567 26.2885 3.45684C26.2933 3.51989 26.2968 3.58338 26.2981 3.6473C26.2991 3.69768 26.2991 3.74806 26.2979 3.79822C26.2811 4.55157 26.0191 5.28333 25.5557 5.89209C26.5465 6.4669 27.2492 7.43768 27.4093 8.56646C27.4322 8.72771 27.444 8.89217 27.444 9.05921C27.444 9.85886 27.1793 10.602 26.7211 11.2109C27.8027 11.877 28.5183 13.0235 28.5183 14.3234V14.3235C28.5183 15.9581 27.3872 17.3499 25.819 17.8493C26.1505 18.4222 26.3172 19.0702 26.2967 19.7357V19.7358C26.2967 19.7367 26.2966 19.7376 26.2964 19.7386C26.2945 19.8002 26.2908 19.8616 26.2855 19.9226C26.2837 19.9444 26.2807 19.9659 26.2783 19.9874C26.2741 20.0275 26.2699 20.0675 26.2643 20.1072C26.2608 20.1324 26.2562 20.1572 26.2521 20.1821C26.2462 20.218 26.2404 20.2539 26.2333 20.2895C26.2281 20.3154 26.2222 20.3411 26.2164 20.3668C26.2088 20.401 26.2012 20.4353 26.1926 20.4692C26.186 20.495 26.1788 20.5205 26.1716 20.546C26.1623 20.5797 26.1526 20.6131 26.1423 20.6463C26.1345 20.6714 26.1262 20.6962 26.1178 20.7211C26.1065 20.7546 26.0949 20.7876 26.0827 20.8206C26.0738 20.8446 26.0646 20.8684 26.0553 20.8921C26.0419 20.9258 26.0279 20.9593 26.0135 20.9926C26.0039 21.0147 25.9943 21.0369 25.9843 21.0588C25.9683 21.0938 25.9515 21.1283 25.9344 21.1628C25.9281 21.1755 25.9224 21.1888 25.9158 21.2015H26.2257C26.577 21.2015 26.9061 21.3734 27.1069 21.6615C27.3078 21.9498 27.3551 22.318 27.2335 22.6476L25.1004 28.4284C25.0389 28.5959 25.0076 28.7671 25.0076 28.9375C25.0076 29.6468 25.53 30.2842 26.307 30.5233C27.3504 30.8437 28.4744 30.36 28.8124 29.4446C28.821 29.4209 28.8305 29.3977 28.8409 29.3748L31.1826 24.1841C32.2396 21.8403 36.0327 17.367 36.1937 17.1776C36.3978 16.9376 36.697 16.7994 37.012 16.7994H38.9724V6.61633ZM43.4743 5.63664H41.1209V17.7796H43.4743V5.63664ZM51.7773 5.63664H45.6227V17.7796H51.7773V5.63664Z" fill="black"/>
</svg>
